<svg width="141" height="33" viewBox="0 0 141 33" fill="none" xmlns="http://www.w3.org/2000/svg"><path d="M65.357 15.835q-.066 1.088-.66 1.485a2.08 2.08 0 0 1-1.222.395q-.264 0-.726-.131a2.05 2.05 0 0 1-.826-.462q-.33-.364-.33-1.023 0-.132-.198-.463-.198-.361-.693-.66-.462-.297-1.288-.296-.561 0-1.122.197a2.4 2.4 0 0 0-.925.561 1.17 1.17 0 0 0-.363.859q0 .593.562 1.088.56.495 1.42.924.857.43 1.749.892a8.6 8.6 0 0 1 2.047 1.32 5.2 5.2 0 0 1 1.386 1.715q.495.958.496 2.244 0 1.617-.99 2.938-.992 1.287-2.576 2.046a7.4 7.4 0 0 1-3.301.759q-.892 0-1.915-.198A8.8 8.8 0 0 1 54 29.497a4.7 4.7 0 0 1-1.519-1.056 4 4 0 0 1-.66-.924 2.54 2.54 0 0 1-.231-1.09q0-.825.594-1.287t1.255-.462q.594 0 .957.232.396.197.66.494.43.462 1.123.826.693.362 1.65.363.86 0 1.354-.265.528-.296.76-.692.23-.396.23-.726 0-.562-.363-.99-.33-.43-.957-.793-.594-.361-1.42-.726-1.156-.495-2.278-1.187a6.5 6.5 0 0 1-1.848-1.782q-.727-1.089-.727-2.673 0-1.617.958-2.838.99-1.221 2.575-1.914a8.3 8.3 0 0 1 3.367-.694q1.485 0 2.873.528 1.386.53 2.245 1.552.858.99.759 2.441M69.41 4.25q.066-.924.727-1.287.66-.363 1.452-.363.561 0 1.057.165.528.165.858.561t.264 1.09q-.033.626-.132 1.55-.066.924-.132 1.947-.066.99-.132 1.914-.231 4.785-.33 9.24t-.033 9.01q.033.891-.594 1.287-.628.363-1.453.363-.528 0-1.09-.166a2 2 0 0 1-.891-.56q-.33-.43-.363-1.122 0-4.257.099-8.25.132-3.994.297-7.821.198-3.862.396-7.558m8.996 8.415q.133-.693.693-.99.595-.33 1.387-.33 1.023 0 1.684.495.66.495.528 1.618a84 84 0 0 0-.396 4.224q-.099 1.98-.132 3.762a168 168 0 0 1-.1 3.465 76 76 0 0 1-.131 3.233q-.066.99-.628 1.42-.561.462-1.518.462-1.255 0-1.816-.528-.528-.528-.462-1.65.066-.694.099-2.047.033-1.386.066-3.134.066-1.749.132-3.63.1-1.882.23-3.532.133-1.681.364-2.838m-.561-7.194q0-.99.726-1.749.727-.759 2.08-.759 1.222 0 1.98.726.76.726.76 1.947 0 .693-.363 1.287-.363.561-.924.924-.561.33-1.255.33-1.486 0-2.245-.726t-.76-1.98M98.813 3.79q.066-.957.66-1.32.595-.396 1.486-.396 1.189 0 1.849.396t.561 1.452a497 497 0 0 0-.66 12.112q-.264 6.204-.561 12.243 0 .89-.76 1.287a3.3 3.3 0 0 1-1.617.396q-.958 0-1.52-.396-.56-.43-.527-1.056 0-.364.033-.694a44 44 0 0 0 .132-1.65q-.66 1.255-1.585 2.08a6.4 6.4 0 0 1-1.948 1.254 5.9 5.9 0 0 1-2.146.395q-1.618 0-2.773-.726a6.1 6.1 0 0 1-1.882-1.947 10 10 0 0 1-1.09-2.64q-.33-1.418-.33-2.739 0-1.946.595-3.794a11.6 11.6 0 0 1 1.75-3.366q1.122-1.518 2.64-2.376 1.553-.892 3.434-.892.925 0 1.85.231a7.3 7.3 0 0 1 1.848.76q.099-1.52.165-3.004.099-1.485.198-2.904t.198-2.706m-7.956 17.952q0 1.056.264 2.047.264.99.76 1.616.526.595 1.287.595.858 0 1.584-.627a6.7 6.7 0 0 0 1.354-1.552 10 10 0 0 0 .957-2.012q.363-1.056.43-1.915.033-.165.099-.297a.73.73 0 0 1 .23-.297l.166-3.168q-.694-.56-1.387-.792a4.4 4.4 0 0 0-1.386-.23q-1.024 0-2.047.758-.99.727-1.651 2.211-.66 1.486-.66 3.663m23.26 7.887q-2.113 0-3.665-.726-1.552-.759-2.575-1.98a8.8 8.8 0 0 1-1.486-2.805 10.3 10.3 0 0 1-.495-3.134q0-1.717.66-3.4a10.9 10.9 0 0 1 1.915-3.068 9.2 9.2 0 0 1 2.873-2.245q1.683-.857 3.664-.857 1.684 0 2.872.594 1.19.56 1.816 1.584.627 1.023.628 2.441 0 1.485-.694 2.706-.66 1.19-1.882 1.98a10.6 10.6 0 0 1-3.368 1.518 20.4 20.4 0 0 1-3.796.595 7.4 7.4 0 0 0 .793 1.485q.495.693 1.254 1.155.792.428 1.849.428 1.189 0 2.179-.594a8.7 8.7 0 0 0 1.75-1.451q.33-.363.594-.462.297-.133.528-.133.429 0 .826.297.429.265.726.694.33.396.396.858.066.396-.099.791a2 2 0 0 1-.396.595q-1.222 1.32-3.004 2.244-1.75.89-3.863.89m-3.731-10.097q1.056-.067 1.816-.165.759-.132 1.717-.529a4.4 4.4 0 0 0 1.551-1.055 2.3 2.3 0 0 0 .661-1.65q0-.364-.165-.66a1.23 1.23 0 0 0-.529-.528q-.33-.2-.858-.199-.792 0-1.519.463-.693.462-1.254 1.187a7.4 7.4 0 0 0-.925 1.552 7 7 0 0 0-.495 1.584m12.945-5.908a1.45 1.45 0 0 1-.198-.694q0-.461.264-.791.298-.33.694-.495.429-.199.858-.264.429-.067.792-.067.793 0 1.156.231.396.231.561.561a73 73 0 0 0 2.674 3.73 334 334 0 0 0 3.071 3.893q1.585 1.947 3.136 3.861a123 123 0 0 1 2.839 3.565q.199.231.331.494a1 1 0 0 1 .165.529q0 .461-.463.858-.429.363-1.122.593-.66.231-1.387.198a1.55 1.55 0 0 1-.792-.264 2.5 2.5 0 0 1-.594-.594 62 62 0 0 0-1.75-2.244 58 58 0 0 0-1.75-2.177 55 55 0 0 0-1.75-2.113 148 148 0 0 0-1.749-2.111l-1.718-2.178q-.824-1.089-1.65-2.211a63 63 0 0 1-1.618-2.31m3.335 15.675q-.363.462-.825.627-.43.165-.727.165-.693 0-1.287-.265a2.6 2.6 0 0 1-.958-.692q-.33-.43-.33-.858 0-.23.099-.43.132-.231.297-.462 2.047-2.376 4.193-4.884 2.146-2.54 4.325-5.114a533 533 0 0 1 4.358-5.148q.33-.396.594-.561a1.4 1.4 0 0 1 .661-.232q.858-.065 1.485.232.627.296.958.726.33.428.33.791 0 .33-.198.66-.165.33-.364.529a241 241 0 0 0-6.437 7.557 519 519 0 0 1-6.174 7.358" fill="#27272a"/><path d="M30.966 12.968 19.938 1.945a2.75 2.75 0 0 0-3.891 0l-14.1 14.093a2.75 2.75 0 0 0 0 3.89L12.975 30.95a2.75 2.75 0 0 0 3.891 0l14.1-14.094a2.75 2.75 0 0 0 0-3.889" fill="#d4d4d8"/><path d="M44.032 12.968 33.004 1.945a2.75 2.75 0 0 0-3.89 0l-14.1 14.093a2.75 2.75 0 0 0 0 3.89L26.041 30.95a2.75 2.75 0 0 0 3.89 0l14.1-14.094a2.75 2.75 0 0 0 0-3.889" fill="#27272a"/></svg>